<mxfile host="app.diagrams.net" agent="Mozilla/5.0 (Windows NT 10.0; Win64; x64; rv:128.0) Gecko/20100101 Firefox/128.0" version="27.1.4">
  <diagram name="Page-1" id="1sCpQ4ILgBRNQXxo9UfI">
    <mxGraphModel dx="786" dy="427" grid="1" gridSize="10" guides="1" tooltips="1" connect="1" arrows="0" fold="1" page="1" pageScale="1" pageWidth="850" pageHeight="1100" math="0" shadow="0">
      <root>
        <mxCell id="0" />
        <mxCell id="1" parent="0" />
        <mxCell id="EwfzDVr0Y4OYVhOE1TKf-1" value="" style="rounded=1;whiteSpace=wrap;html=1;fillColor=#fff2cc;strokeColor=#d6b656;" vertex="1" parent="1">
          <mxGeometry x="80" y="80" width="320" height="240" as="geometry" />
        </mxCell>
        <mxCell id="EwfzDVr0Y4OYVhOE1TKf-2" value="" style="rounded=1;whiteSpace=wrap;html=1;fillColor=#dae8fc;strokeColor=#6c8ebf;" vertex="1" parent="1">
          <mxGeometry x="520" y="80" width="320" height="240" as="geometry" />
        </mxCell>
        <mxCell id="EwfzDVr0Y4OYVhOE1TKf-3" value="" style="sketch=0;outlineConnect=0;fontColor=#232F3E;gradientColor=none;fillColor=#232F3D;strokeColor=none;dashed=0;verticalLabelPosition=bottom;verticalAlign=top;align=center;html=1;fontSize=12;fontStyle=0;aspect=fixed;pointerEvents=1;shape=mxgraph.aws4.authenticated_user;" vertex="1" parent="1">
          <mxGeometry x="341.5" y="360" width="78" height="78" as="geometry" />
        </mxCell>
        <mxCell id="EwfzDVr0Y4OYVhOE1TKf-4" value="" style="sketch=0;points=[[0,0,0],[0.25,0,0],[0.5,0,0],[0.75,0,0],[1,0,0],[0,1,0],[0.25,1,0],[0.5,1,0],[0.75,1,0],[1,1,0],[0,0.25,0],[0,0.5,0],[0,0.75,0],[1,0.25,0],[1,0.5,0],[1,0.75,0]];outlineConnect=0;fontColor=#232F3E;fillColor=#ED7100;strokeColor=#ffffff;dashed=0;verticalLabelPosition=bottom;verticalAlign=top;align=center;html=1;fontSize=12;fontStyle=0;aspect=fixed;shape=mxgraph.aws4.resourceIcon;resIcon=mxgraph.aws4.genomics_cli;" vertex="1" parent="1">
          <mxGeometry x="280" y="200" width="78" height="78" as="geometry" />
        </mxCell>
        <mxCell id="EwfzDVr0Y4OYVhOE1TKf-5" value="" style="sketch=0;points=[[0,0,0],[0.25,0,0],[0.5,0,0],[0.75,0,0],[1,0,0],[0,1,0],[0.25,1,0],[0.5,1,0],[0.75,1,0],[1,1,0],[0,0.25,0],[0,0.5,0],[0,0.75,0],[1,0.25,0],[1,0.5,0],[1,0.75,0]];outlineConnect=0;fontColor=#232F3E;fillColor=#01A88D;strokeColor=#ffffff;dashed=0;verticalLabelPosition=bottom;verticalAlign=top;align=center;html=1;fontSize=12;fontStyle=0;aspect=fixed;shape=mxgraph.aws4.resourceIcon;resIcon=mxgraph.aws4.bedrock;" vertex="1" parent="1">
          <mxGeometry x="140" y="200" width="78" height="78" as="geometry" />
        </mxCell>
        <mxCell id="EwfzDVr0Y4OYVhOE1TKf-6" value="" style="rounded=1;whiteSpace=wrap;html=1;fillColor=#60a917;strokeColor=#2D7600;fontColor=#ffffff;" vertex="1" parent="1">
          <mxGeometry x="238" y="100" width="120" height="60" as="geometry" />
        </mxCell>
        <mxCell id="EwfzDVr0Y4OYVhOE1TKf-7" value="" style="rounded=1;whiteSpace=wrap;html=1;fillColor=#60a917;strokeColor=#2D7600;fontColor=#ffffff;" vertex="1" parent="1">
          <mxGeometry x="540" y="100" width="120" height="60" as="geometry" />
        </mxCell>
        <mxCell id="EwfzDVr0Y4OYVhOE1TKf-8" value="KITE" style="rounded=1;whiteSpace=wrap;html=1;fillColor=#f8cecc;strokeColor=#b85450;" vertex="1" parent="1">
          <mxGeometry x="540" y="190" width="120" height="100" as="geometry" />
        </mxCell>
        <mxCell id="EwfzDVr0Y4OYVhOE1TKf-9" value="Amazon Q CLI" style="text;strokeColor=none;align=center;fillColor=none;html=1;verticalAlign=middle;whiteSpace=wrap;rounded=0;" vertex="1" parent="1">
          <mxGeometry x="100" y="100" width="100" height="20" as="geometry" />
        </mxCell>
        <mxCell id="EwfzDVr0Y4OYVhOE1TKf-10" value="Amazon Q CLI" style="text;strokeColor=none;align=center;fillColor=none;html=1;verticalAlign=middle;whiteSpace=wrap;rounded=0;" vertex="1" parent="1">
          <mxGeometry x="269" y="278" width="100" height="20" as="geometry" />
        </mxCell>
        <mxCell id="EwfzDVr0Y4OYVhOE1TKf-11" value="LLM" style="text;strokeColor=none;align=center;fillColor=none;html=1;verticalAlign=middle;whiteSpace=wrap;rounded=0;" vertex="1" parent="1">
          <mxGeometry x="129" y="278" width="100" height="20" as="geometry" />
        </mxCell>
        <mxCell id="EwfzDVr0Y4OYVhOE1TKf-12" value="" style="endArrow=classic;html=1;rounded=0;entryX=0.5;entryY=0;entryDx=0;entryDy=0;" edge="1" parent="1" source="EwfzDVr0Y4OYVhOE1TKf-3" target="EwfzDVr0Y4OYVhOE1TKf-10">
          <mxGeometry width="50" height="50" relative="1" as="geometry">
            <mxPoint x="300" y="440" as="sourcePoint" />
            <mxPoint x="490" y="230" as="targetPoint" />
            <Array as="points">
              <mxPoint x="319" y="400" />
            </Array>
          </mxGeometry>
        </mxCell>
        <mxCell id="EwfzDVr0Y4OYVhOE1TKf-13" value="" style="endArrow=classic;html=1;rounded=0;entryX=1;entryY=0.5;entryDx=0;entryDy=0;entryPerimeter=0;" edge="1" parent="1" source="EwfzDVr0Y4OYVhOE1TKf-4" target="EwfzDVr0Y4OYVhOE1TKf-5">
          <mxGeometry width="50" height="50" relative="1" as="geometry">
            <mxPoint x="440" y="280" as="sourcePoint" />
            <mxPoint x="490" y="230" as="targetPoint" />
          </mxGeometry>
        </mxCell>
        <mxCell id="EwfzDVr0Y4OYVhOE1TKf-14" value="" style="endArrow=classic;html=1;rounded=0;exitX=0.5;exitY=0;exitDx=0;exitDy=0;exitPerimeter=0;entryX=0;entryY=0.5;entryDx=0;entryDy=0;" edge="1" parent="1" source="EwfzDVr0Y4OYVhOE1TKf-5" target="EwfzDVr0Y4OYVhOE1TKf-6">
          <mxGeometry width="50" height="50" relative="1" as="geometry">
            <mxPoint x="440" y="280" as="sourcePoint" />
            <mxPoint x="490" y="230" as="targetPoint" />
            <Array as="points">
              <mxPoint x="180" y="130" />
            </Array>
          </mxGeometry>
        </mxCell>
        <mxCell id="EwfzDVr0Y4OYVhOE1TKf-15" value="" style="endArrow=classic;html=1;rounded=0;exitX=1;exitY=0.5;exitDx=0;exitDy=0;" edge="1" parent="1" source="EwfzDVr0Y4OYVhOE1TKf-6" target="EwfzDVr0Y4OYVhOE1TKf-7">
          <mxGeometry width="50" height="50" relative="1" as="geometry">
            <mxPoint x="440" y="280" as="sourcePoint" />
            <mxPoint x="490" y="230" as="targetPoint" />
          </mxGeometry>
        </mxCell>
        <mxCell id="EwfzDVr0Y4OYVhOE1TKf-16" value="" style="endArrow=classic;html=1;rounded=0;exitX=0.5;exitY=1;exitDx=0;exitDy=0;entryX=0.5;entryY=0;entryDx=0;entryDy=0;" edge="1" parent="1" source="EwfzDVr0Y4OYVhOE1TKf-7" target="EwfzDVr0Y4OYVhOE1TKf-8">
          <mxGeometry width="50" height="50" relative="1" as="geometry">
            <mxPoint x="440" y="280" as="sourcePoint" />
            <mxPoint x="490" y="230" as="targetPoint" />
          </mxGeometry>
        </mxCell>
        <mxCell id="EwfzDVr0Y4OYVhOE1TKf-17" value="" style="endArrow=classic;html=1;rounded=0;exitX=0.5;exitY=1;exitDx=0;exitDy=0;" edge="1" parent="1" source="EwfzDVr0Y4OYVhOE1TKf-8" target="EwfzDVr0Y4OYVhOE1TKf-18">
          <mxGeometry width="50" height="50" relative="1" as="geometry">
            <mxPoint x="440" y="280" as="sourcePoint" />
            <mxPoint x="600" y="350" as="targetPoint" />
          </mxGeometry>
        </mxCell>
        <mxCell id="EwfzDVr0Y4OYVhOE1TKf-18" value="Analysis" style="rounded=1;whiteSpace=wrap;html=1;" vertex="1" parent="1">
          <mxGeometry x="540" y="369" width="120" height="60" as="geometry" />
        </mxCell>
        <mxCell id="EwfzDVr0Y4OYVhOE1TKf-20" value="" style="endArrow=classic;html=1;rounded=0;exitX=0;exitY=0.5;exitDx=0;exitDy=0;" edge="1" parent="1" source="EwfzDVr0Y4OYVhOE1TKf-18" target="EwfzDVr0Y4OYVhOE1TKf-3">
          <mxGeometry width="50" height="50" relative="1" as="geometry">
            <mxPoint x="530" y="400" as="sourcePoint" />
            <mxPoint x="490" y="230" as="targetPoint" />
          </mxGeometry>
        </mxCell>
        <mxCell id="EwfzDVr0Y4OYVhOE1TKf-21" value="1. Requests for stock portfolio analysis" style="text;html=1;align=center;verticalAlign=middle;whiteSpace=wrap;rounded=0;" vertex="1" parent="1">
          <mxGeometry x="190" y="369" width="130" height="30" as="geometry" />
        </mxCell>
        <mxCell id="EwfzDVr0Y4OYVhOE1TKf-22" value="2. Uses internally" style="text;html=1;align=center;verticalAlign=middle;whiteSpace=wrap;rounded=0;" vertex="1" parent="1">
          <mxGeometry x="218" y="240" width="62" height="32" as="geometry" />
        </mxCell>
        <mxCell id="EwfzDVr0Y4OYVhOE1TKf-23" value="3. Tools calling" style="text;html=1;align=center;verticalAlign=middle;whiteSpace=wrap;rounded=0;" vertex="1" parent="1">
          <mxGeometry x="119" y="150" width="62" height="32" as="geometry" />
        </mxCell>
        <mxCell id="EwfzDVr0Y4OYVhOE1TKf-25" value="&lt;span style=&quot;color: rgb(255, 255, 255);&quot;&gt;MCP Client&lt;br&gt;&lt;/span&gt;" style="text;html=1;align=center;verticalAlign=middle;whiteSpace=wrap;rounded=0;" vertex="1" parent="1">
          <mxGeometry x="256.5" y="117" width="83" height="26" as="geometry" />
        </mxCell>
        <mxCell id="EwfzDVr0Y4OYVhOE1TKf-26" value="&lt;span style=&quot;color: rgb(255, 255, 255);&quot;&gt;MCP Server API&lt;br&gt;&lt;/span&gt;" style="text;html=1;align=center;verticalAlign=middle;whiteSpace=wrap;rounded=0;" vertex="1" parent="1">
          <mxGeometry x="549.25" y="120" width="101.5" height="23" as="geometry" />
        </mxCell>
        <mxCell id="EwfzDVr0Y4OYVhOE1TKf-27" value="MCP Protocol" style="text;html=1;align=center;verticalAlign=middle;whiteSpace=wrap;rounded=0;" vertex="1" parent="1">
          <mxGeometry x="410" y="100" width="95" height="25" as="geometry" />
        </mxCell>
        <mxCell id="EwfzDVr0Y4OYVhOE1TKf-28" value="4. sends request to MCP server" style="text;html=1;align=center;verticalAlign=middle;whiteSpace=wrap;rounded=0;" vertex="1" parent="1">
          <mxGeometry x="410" y="135" width="95" height="25" as="geometry" />
        </mxCell>
        <mxCell id="EwfzDVr0Y4OYVhOE1TKf-35" value="" style="rounded=1;whiteSpace=wrap;html=1;fillColor=#e1d5e7;strokeColor=#9673a6;" vertex="1" parent="1">
          <mxGeometry x="680" y="150" width="150" height="160" as="geometry" />
        </mxCell>
        <mxCell id="EwfzDVr0Y4OYVhOE1TKf-30" value="kite___get_mf_holdings " style="rounded=1;whiteSpace=wrap;html=1;fillColor=#1ba1e2;fontColor=#ffffff;strokeColor=#006EAF;" vertex="1" parent="1">
          <mxGeometry x="685" y="164" width="140" height="18" as="geometry" />
        </mxCell>
        <mxCell id="EwfzDVr0Y4OYVhOE1TKf-36" value="kite__get_trades" style="rounded=1;whiteSpace=wrap;html=1;fillColor=#1ba1e2;fontColor=#ffffff;strokeColor=#006EAF;" vertex="1" parent="1">
          <mxGeometry x="685" y="191" width="140" height="20" as="geometry" />
        </mxCell>
        <mxCell id="EwfzDVr0Y4OYVhOE1TKf-37" value="kite__get_historical_data" style="rounded=1;whiteSpace=wrap;html=1;fillColor=#1ba1e2;fontColor=#ffffff;strokeColor=#006EAF;" vertex="1" parent="1">
          <mxGeometry x="685" y="220" width="140" height="20" as="geometry" />
        </mxCell>
        <mxCell id="EwfzDVr0Y4OYVhOE1TKf-38" value="kite__login" style="rounded=1;whiteSpace=wrap;html=1;fillColor=#1ba1e2;fontColor=#ffffff;strokeColor=#006EAF;" vertex="1" parent="1">
          <mxGeometry x="690" y="272" width="130" height="20" as="geometry" />
        </mxCell>
        <mxCell id="EwfzDVr0Y4OYVhOE1TKf-39" value="" style="endArrow=none;dashed=1;html=1;rounded=0;entryX=0.5;entryY=1;entryDx=0;entryDy=0;exitX=0.5;exitY=0;exitDx=0;exitDy=0;" edge="1" parent="1" source="EwfzDVr0Y4OYVhOE1TKf-38" target="EwfzDVr0Y4OYVhOE1TKf-37">
          <mxGeometry width="50" height="50" relative="1" as="geometry">
            <mxPoint x="450" y="280" as="sourcePoint" />
            <mxPoint x="500" y="230" as="targetPoint" />
          </mxGeometry>
        </mxCell>
        <mxCell id="EwfzDVr0Y4OYVhOE1TKf-40" value="" style="endArrow=classic;html=1;rounded=0;exitX=1;exitY=0.5;exitDx=0;exitDy=0;" edge="1" parent="1" source="EwfzDVr0Y4OYVhOE1TKf-8">
          <mxGeometry width="50" height="50" relative="1" as="geometry">
            <mxPoint x="450" y="280" as="sourcePoint" />
            <mxPoint x="680" y="240" as="targetPoint" />
          </mxGeometry>
        </mxCell>
        <mxCell id="EwfzDVr0Y4OYVhOE1TKf-41" value="5. Generates" style="text;html=1;align=center;verticalAlign=middle;whiteSpace=wrap;rounded=0;" vertex="1" parent="1">
          <mxGeometry x="517" y="330" width="80" height="30" as="geometry" />
        </mxCell>
        <mxCell id="EwfzDVr0Y4OYVhOE1TKf-42" value="6. Displays to user" style="text;html=1;align=center;verticalAlign=middle;whiteSpace=wrap;rounded=0;" vertex="1" parent="1">
          <mxGeometry x="431" y="407" width="104" height="23" as="geometry" />
        </mxCell>
      </root>
    </mxGraphModel>
  </diagram>
</mxfile>
